# MagicaVoxel @ Ephtracy

# group
o 

# material
mtllib PerritoCaliente.mtl
usemtl palette

# normals
vn -1 0 0
vn 1 0 0
vn 0 0 1
vn 0 0 -1
vn 0 -1 0
vn 0 1 0

# texcoords
vt 0.00195313 0.5
vt 0.0214844 0.5
vt 0.837891 0.5

# verts
v -0.9 0 2
v -0.9 0 -2
v -0.9 1.1 2
v -0.9 1.1 -2
v -0.2 1 1.9
v -0.2 1 1.4
v -0.2 1 1.2
v -0.2 1 0.6
v -0.2 1 0.4
v -0.2 1 -0.2
v -0.2 1 -0.4
v -0.2 1 -1
v -0.2 1 -1.2
v -0.2 1 -1.8
v -0.2 1.1 1.9
v -0.2 1.1 1.4
v -0.2 1.1 1.2
v -0.2 1.1 0.6
v -0.2 1.1 0.4
v -0.2 1.1 -0.2
v -0.2 1.1 -0.4
v -0.2 1.1 -1
v -0.2 1.1 -1.2
v -0.2 1.1 -1.8
v 0 1 0.6
v 0 1 0.4
v 0 1 -0.2
v 0 1 -0.4
v 0 1 -1
v 0 1 -1.2
v 0 1.1 0.6
v 0 1.1 0.4
v 0 1.1 -0.2
v 0 1.1 -0.4
v 0 1.1 -1
v 0 1.1 -1.2
v 0.1 1 1.4
v 0.1 1 1.2
v 0.1 1.1 1.4
v 0.1 1.1 1.2
v 0.3 1 2
v 0.3 1 -2
v 0.3 1.1 2
v 0.3 1.1 -2
v -0.4 1 2
v -0.4 1 -2
v -0.4 1.1 2
v -0.4 1.1 -2
v -0.1 1 1
v -0.1 1 0.8
v -0.1 1.1 1
v -0.1 1.1 0.8
v 0 1 1.9
v 0 1 1.6
v 0 1 0.2
v 0 1 -2.38419e-07
v 0 1 -0.6
v 0 1 -0.8
v 0 1 -1.4
v 0 1 -1.6
v 0 1.1 1.9
v 0 1.1 1.6
v 0 1.1 0.2
v 0 1.1 -2.38419e-07
v 0 1.1 -0.6
v 0 1.1 -0.8
v 0 1.1 -1.4
v 0 1.1 -1.6
v 0.2 1 1.6
v 0.2 1 1
v 0.2 1 0.8
v 0.2 1 0.2
v 0.2 1 -2.38419e-07
v 0.2 1 -0.6
v 0.2 1 -0.8
v 0.2 1 -1.4
v 0.2 1 -1.6
v 0.2 1 -1.8
v 0.2 1.1 1.6
v 0.2 1.1 1
v 0.2 1.1 0.8
v 0.2 1.1 0.2
v 0.2 1.1 -2.38419e-07
v 0.2 1.1 -0.6
v 0.2 1.1 -0.8
v 0.2 1.1 -1.4
v 0.2 1.1 -1.6
v 0.2 1.1 -1.8
v 0.8 0 2
v 0.8 0 -2
v 0.8 1.1 2
v 0.8 1.1 -2
v -0.9 0 2
v -0.9 1.1 2
v -0.4 0.5 2
v -0.4 1 2
v -0.4 1.1 2
v 0.3 0.5 2
v 0.3 1 2
v 0.3 1.1 2
v 0.8 0 2
v 0.8 1.1 2
v -0.2 1 1.9
v -0.2 1.1 1.9
v 0 1 1.9
v 0 1.1 1.9
v 0 1 1.6
v 0 1.1 1.6
v 0.2 1 1.6
v 0.2 1.1 1.6
v -0.2 1 1.2
v -0.2 1.1 1.2
v 0.1 1 1.2
v 0.1 1.1 1.2
v -0.1 1 0.8
v -0.1 1.1 0.8
v 0.2 1 0.8
v 0.2 1.1 0.8
v -0.2 1 0.4
v -0.2 1.1 0.4
v 0 1 0.4
v 0 1.1 0.4
v 0 1 -2.38419e-07
v 0 1.1 -2.38419e-07
v 0.2 1 -2.38419e-07
v 0.2 1.1 -2.38419e-07
v -0.2 1 -0.4
v -0.2 1.1 -0.4
v 0 1 -0.4
v 0 1.1 -0.4
v 0 1 -0.8
v 0 1.1 -0.8
v 0.2 1 -0.8
v 0.2 1.1 -0.8
v -0.2 1 -1.2
v -0.2 1.1 -1.2
v 0 1 -1.2
v 0 1.1 -1.2
v 0 1 -1.6
v 0 1.1 -1.6
v 0.2 1 -1.6
v 0.2 1.1 -1.6
v -0.2 1 1.4
v -0.2 1.1 1.4
v 0.1 1 1.4
v 0.1 1.1 1.4
v -0.1 1 1
v -0.1 1.1 1
v 0.2 1 1
v 0.2 1.1 1
v -0.2 1 0.6
v -0.2 1.1 0.6
v 0 1 0.6
v 0 1.1 0.6
v 0 1 0.2
v 0 1.1 0.2
v 0.2 1 0.2
v 0.2 1.1 0.2
v -0.2 1 -0.2
v -0.2 1.1 -0.2
v 0 1 -0.2
v 0 1.1 -0.2
v 0 1 -0.6
v 0 1.1 -0.6
v 0.2 1 -0.6
v 0.2 1.1 -0.6
v -0.2 1 -1
v -0.2 1.1 -1
v 0 1 -1
v 0 1.1 -1
v 0 1 -1.4
v 0 1.1 -1.4
v 0.2 1 -1.4
v 0.2 1.1 -1.4
v -0.2 1 -1.8
v -0.2 1.1 -1.8
v 0.2 1 -1.8
v 0.2 1.1 -1.8
v -0.9 0 -2
v -0.9 1.1 -2
v -0.4 0.5 -2
v -0.4 1 -2
v -0.4 1.1 -2
v 0.3 0.5 -2
v 0.3 1 -2
v 0.3 1.1 -2
v 0.8 0 -2
v 0.8 1.1 -2
v -0.9 0 2
v 0.8 0 2
v -0.9 0 -2
v 0.8 0 -2
v -0.4 1 2
v 0.3 1 2
v -0.2 1 1.9
v 0 1 1.9
v 0 1 1.6
v 0.2 1 1.6
v -0.2 1 1.4
v 0.1 1 1.4
v -0.2 1 1.2
v 0.1 1 1.2
v -0.1 1 1
v 0.2 1 1
v -0.1 1 0.8
v 0.2 1 0.8
v -0.2 1 0.6
v 0 1 0.6
v -0.2 1 0.4
v 0 1 0.4
v 0 1 0.2
v 0.2 1 0.2
v 0 1 -2.38419e-07
v 0.2 1 -2.38419e-07
v -0.2 1 -0.2
v 0 1 -0.2
v -0.2 1 -0.4
v 0 1 -0.4
v 0 1 -0.6
v 0.2 1 -0.6
v 0 1 -0.8
v 0.2 1 -0.8
v -0.2 1 -1
v 0 1 -1
v -0.2 1 -1.2
v 0 1 -1.2
v 0 1 -1.4
v 0.2 1 -1.4
v 0 1 -1.6
v 0.2 1 -1.6
v -0.2 1 -1.8
v 0.2 1 -1.8
v -0.4 1 -2
v 0.3 1 -2
v -0.9 1.1 2
v -0.4 1.1 2
v 0.3 1.1 2
v 0.8 1.1 2
v -0.2 1.1 1.9
v 0 1.1 1.9
v 0 1.1 1.6
v 0.2 1.1 1.6
v -0.2 1.1 1.4
v 0.1 1.1 1.4
v -0.2 1.1 1.2
v 0.1 1.1 1.2
v -0.1 1.1 1
v 0.2 1.1 1
v -0.1 1.1 0.8
v 0.2 1.1 0.8
v -0.2 1.1 0.6
v 0 1.1 0.6
v -0.2 1.1 0.4
v 0 1.1 0.4
v 0 1.1 0.2
v 0.2 1.1 0.2
v 0 1.1 -2.38419e-07
v 0.2 1.1 -2.38419e-07
v -0.2 1.1 -0.2
v 0 1.1 -0.2
v -0.2 1.1 -0.4
v 0 1.1 -0.4
v 0 1.1 -0.6
v 0.2 1.1 -0.6
v 0 1.1 -0.8
v 0.2 1.1 -0.8
v -0.2 1.1 -1
v 0 1.1 -1
v -0.2 1.1 -1.2
v 0 1.1 -1.2
v 0 1.1 -1.4
v 0.2 1.1 -1.4
v 0 1.1 -1.6
v 0.2 1.1 -1.6
v -0.2 1.1 -1.8
v 0.2 1.1 -1.8
v -0.9 1.1 -2
v -0.4 1.1 -2
v 0.3 1.1 -2
v 0.8 1.1 -2

# faces
f 3/3/1 2/3/1 1/3/1
f 4/3/1 2/3/1 3/3/1
f 15/2/1 6/2/1 5/2/1
f 16/2/1 6/2/1 15/2/1
f 17/2/1 8/2/1 7/2/1
f 18/2/1 8/2/1 17/2/1
f 19/2/1 10/2/1 9/2/1
f 20/2/1 10/2/1 19/2/1
f 21/2/1 12/2/1 11/2/1
f 22/2/1 12/2/1 21/2/1
f 23/2/1 14/2/1 13/2/1
f 24/2/1 14/2/1 23/2/1
f 31/2/1 26/2/1 25/2/1
f 32/2/1 26/2/1 31/2/1
f 33/2/1 28/2/1 27/2/1
f 34/2/1 28/2/1 33/2/1
f 35/2/1 30/2/1 29/2/1
f 36/2/1 30/2/1 35/2/1
f 39/2/1 38/2/1 37/2/1
f 40/2/1 38/2/1 39/2/1
f 43/3/1 42/3/1 41/3/1
f 44/3/1 42/3/1 43/3/1
f 45/3/2 46/3/2 47/3/2
f 47/3/2 46/3/2 48/3/2
f 49/2/2 50/2/2 51/2/2
f 51/2/2 50/2/2 52/2/2
f 53/2/2 54/2/2 61/2/2
f 61/2/2 54/2/2 62/2/2
f 55/2/2 56/2/2 63/2/2
f 63/2/2 56/2/2 64/2/2
f 57/2/2 58/2/2 65/2/2
f 65/2/2 58/2/2 66/2/2
f 59/2/2 60/2/2 67/2/2
f 67/2/2 60/2/2 68/2/2
f 69/2/2 70/2/2 79/2/2
f 79/2/2 70/2/2 80/2/2
f 71/2/2 72/2/2 81/2/2
f 81/2/2 72/2/2 82/2/2
f 73/2/2 74/2/2 83/2/2
f 83/2/2 74/2/2 84/2/2
f 75/2/2 76/2/2 85/2/2
f 85/2/2 76/2/2 86/2/2
f 77/2/2 78/2/2 87/2/2
f 87/2/2 78/2/2 88/2/2
f 89/3/2 90/3/2 91/3/2
f 91/3/2 90/3/2 92/3/2
f 95/3/3 94/3/3 93/3/3
f 96/3/3 94/3/3 95/3/3
f 97/3/3 94/3/3 96/3/3
f 98/3/3 95/3/3 93/3/3
f 98/1/3 96/1/3 95/1/3
f 99/1/3 96/1/3 98/1/3
f 101/3/3 98/3/3 93/3/3
f 101/3/3 100/3/3 99/3/3
f 101/3/3 99/3/3 98/3/3
f 102/3/3 100/3/3 101/3/3
f 105/2/3 104/2/3 103/2/3
f 106/2/3 104/2/3 105/2/3
f 109/2/3 108/2/3 107/2/3
f 110/2/3 108/2/3 109/2/3
f 113/2/3 112/2/3 111/2/3
f 114/2/3 112/2/3 113/2/3
f 117/2/3 116/2/3 115/2/3
f 118/2/3 116/2/3 117/2/3
f 121/2/3 120/2/3 119/2/3
f 122/2/3 120/2/3 121/2/3
f 125/2/3 124/2/3 123/2/3
f 126/2/3 124/2/3 125/2/3
f 129/2/3 128/2/3 127/2/3
f 130/2/3 128/2/3 129/2/3
f 133/2/3 132/2/3 131/2/3
f 134/2/3 132/2/3 133/2/3
f 137/2/3 136/2/3 135/2/3
f 138/2/3 136/2/3 137/2/3
f 141/2/3 140/2/3 139/2/3
f 142/2/3 140/2/3 141/2/3
f 143/2/4 144/2/4 145/2/4
f 145/2/4 144/2/4 146/2/4
f 147/2/4 148/2/4 149/2/4
f 149/2/4 148/2/4 150/2/4
f 151/2/4 152/2/4 153/2/4
f 153/2/4 152/2/4 154/2/4
f 155/2/4 156/2/4 157/2/4
f 157/2/4 156/2/4 158/2/4
f 159/2/4 160/2/4 161/2/4
f 161/2/4 160/2/4 162/2/4
f 163/2/4 164/2/4 165/2/4
f 165/2/4 164/2/4 166/2/4
f 167/2/4 168/2/4 169/2/4
f 169/2/4 168/2/4 170/2/4
f 171/2/4 172/2/4 173/2/4
f 173/2/4 172/2/4 174/2/4
f 175/2/4 176/2/4 177/2/4
f 177/2/4 176/2/4 178/2/4
f 179/3/4 180/3/4 181/3/4
f 181/3/4 180/3/4 182/3/4
f 182/3/4 180/3/4 183/3/4
f 179/3/4 181/3/4 184/3/4
f 181/1/4 182/1/4 184/1/4
f 184/1/4 182/1/4 185/1/4
f 179/3/4 184/3/4 187/3/4
f 185/3/4 186/3/4 187/3/4
f 184/3/4 185/3/4 187/3/4
f 187/3/4 186/3/4 188/3/4
f 191/3/5 190/3/5 189/3/5
f 192/3/5 190/3/5 191/3/5
f 193/1/6 194/1/6 195/1/6
f 195/1/6 194/1/6 196/1/6
f 196/1/6 194/1/6 197/1/6
f 197/1/6 194/1/6 198/1/6
f 193/1/6 195/1/6 199/1/6
f 193/1/6 199/1/6 201/1/6
f 199/1/6 200/1/6 201/1/6
f 201/1/6 200/1/6 202/1/6
f 198/1/6 194/1/6 204/1/6
f 203/1/6 204/1/6 205/1/6
f 204/1/6 194/1/6 206/1/6
f 205/1/6 204/1/6 206/1/6
f 193/1/6 201/1/6 207/1/6
f 193/1/6 207/1/6 209/1/6
f 207/1/6 208/1/6 209/1/6
f 209/1/6 208/1/6 210/1/6
f 206/1/6 194/1/6 212/1/6
f 211/1/6 212/1/6 213/1/6
f 212/1/6 194/1/6 214/1/6
f 213/1/6 212/1/6 214/1/6
f 193/1/6 209/1/6 215/1/6
f 193/1/6 215/1/6 217/1/6
f 215/1/6 216/1/6 217/1/6
f 217/1/6 216/1/6 218/1/6
f 214/1/6 194/1/6 220/1/6
f 219/1/6 220/1/6 221/1/6
f 220/1/6 194/1/6 222/1/6
f 221/1/6 220/1/6 222/1/6
f 193/1/6 217/1/6 223/1/6
f 193/1/6 223/1/6 225/1/6
f 223/1/6 224/1/6 225/1/6
f 225/1/6 224/1/6 226/1/6
f 222/1/6 194/1/6 228/1/6
f 227/1/6 228/1/6 229/1/6
f 228/1/6 194/1/6 230/1/6
f 229/1/6 228/1/6 230/1/6
f 193/1/6 225/1/6 231/1/6
f 230/1/6 194/1/6 232/1/6
f 193/1/6 231/1/6 233/1/6
f 231/1/6 232/1/6 233/1/6
f 232/1/6 194/1/6 234/1/6
f 233/1/6 232/1/6 234/1/6
f 239/2/6 240/2/6 241/2/6
f 239/2/6 241/2/6 243/2/6
f 241/2/6 242/2/6 243/2/6
f 243/2/6 242/2/6 244/2/6
f 244/2/6 242/2/6 246/2/6
f 245/2/6 246/2/6 247/2/6
f 246/2/6 242/2/6 248/2/6
f 247/2/6 246/2/6 248/2/6
f 245/2/6 247/2/6 249/2/6
f 245/2/6 249/2/6 251/2/6
f 249/2/6 250/2/6 251/2/6
f 251/2/6 250/2/6 252/2/6
f 252/2/6 250/2/6 254/2/6
f 254/2/6 250/2/6 255/2/6
f 253/2/6 254/2/6 255/2/6
f 255/2/6 250/2/6 256/2/6
f 253/2/6 255/2/6 257/2/6
f 253/2/6 257/2/6 259/2/6
f 257/2/6 258/2/6 259/2/6
f 259/2/6 258/2/6 260/2/6
f 260/2/6 258/2/6 262/2/6
f 262/2/6 258/2/6 263/2/6
f 261/2/6 262/2/6 263/2/6
f 263/2/6 258/2/6 264/2/6
f 261/2/6 263/2/6 265/2/6
f 261/2/6 265/2/6 267/2/6
f 265/2/6 266/2/6 267/2/6
f 267/2/6 266/2/6 268/2/6
f 268/2/6 266/2/6 270/2/6
f 270/2/6 266/2/6 271/2/6
f 269/2/6 270/2/6 271/2/6
f 271/2/6 266/2/6 272/2/6
f 269/2/6 271/2/6 273/2/6
f 269/2/6 273/2/6 275/2/6
f 273/2/6 274/2/6 275/2/6
f 275/2/6 274/2/6 276/2/6
f 235/3/6 236/3/6 277/3/6
f 277/3/6 236/3/6 278/3/6
f 237/3/6 238/3/6 279/3/6
f 279/3/6 238/3/6 280/3/6
